<svg width="64" height="64" viewBox="0 0 64 64" fill="none" xmlns="http://www.w3.org/2000/svg">
<circle cx="32" cy="32" r="32" fill="#0B1A1B"/>
<path d="M22.9929 39V14.2727H32.7486C34.616 14.2727 36.2098 14.6068 37.5298 15.2749C38.858 15.9349 39.8681 16.8726 40.5604 18.0881C41.2607 19.2955 41.6108 20.7161 41.6108 22.3501C41.6108 23.9922 41.2566 25.4048 40.5483 26.5881C39.84 27.7633 38.8137 28.6648 37.4695 29.2926C36.1333 29.9205 34.5154 30.2344 32.6158 30.2344H26.0838V26.0327H31.7706C32.7687 26.0327 33.5978 25.8958 34.2578 25.6222C34.9179 25.3485 35.4089 24.938 35.7308 24.3906C36.0608 23.8433 36.2259 23.1631 36.2259 22.3501C36.2259 21.5291 36.0608 20.8369 35.7308 20.2734C35.4089 19.71 34.9138 19.2834 34.2457 18.9936C33.5857 18.6958 32.7526 18.5469 31.7464 18.5469H28.2209V39H22.9929ZM36.3466 27.7472L42.4922 39H36.7209L30.7081 27.7472H36.3466Z" fill="#F5F4EF"/>
<circle cx="46" cy="46" r="4" fill="#DE9636"/>
</svg>
